<svg width="397.646484" height="21.000000" viewBox="0 0 397.646 21" fill="none" xmlns="http://www.w3.org/2000/svg" xmlns:xlink="http://www.w3.org/1999/xlink">
	<desc>
			Created with Pixso.
	</desc>
	<defs/>
	<g opacity="0.500000">
		<path id="Account" d="M8.59 15L8.59 5.24L7.32 5.24L7.32 9.52L2.35 9.52L2.35 5.24L1.07 5.24L1.07 15L2.35 15L2.35 10.57L7.32 10.57L7.32 15L8.59 15ZM30.54 7.55Q29.84 7.18 28.95 7.18Q28.34 7.18 27.8 7.38Q27.54 7.48 27.29 7.63Q26.93 7.85 26.67 8.15Q26.4 8.47 26.23 8.89Q25.99 8.34 25.6 7.97Q25.38 7.77 25.12 7.62Q25.05 7.57 24.97 7.53Q24.29 7.18 23.42 7.18Q22.76 7.18 22.2 7.42Q22.1 7.46 22.01 7.51Q21.69 7.67 21.43 7.9Q21.18 8.13 20.99 8.43L20.99 7.32L19.72 7.32L19.72 15L20.99 15L20.99 10.77Q20.99 9.56 21.58 8.93Q21.76 8.74 21.96 8.61Q22.46 8.29 23.17 8.29Q23.87 8.29 24.37 8.62Q24.55 8.73 24.7 8.9Q25.26 9.51 25.26 10.65L25.26 15L26.52 15L26.52 10.77Q26.52 9.56 27.11 8.93Q27.29 8.74 27.5 8.61Q27.99 8.29 28.7 8.29Q29.4 8.29 29.9 8.62Q30.08 8.73 30.23 8.9Q30.79 9.51 30.79 10.65L30.79 15L32.06 15L32.06 10.47Q32.06 9.41 31.65 8.67Q31.37 8.15 30.94 7.82Q30.76 7.67 30.54 7.55L30.54 7.55ZM12.56 14.83Q13.27 15.12 14.11 15.12Q14.96 15.12 15.69 14.82Q15.9 14.74 16.1 14.63Q16.48 14.42 16.8 14.13Q17.21 13.75 17.51 13.24Q17.54 13.19 17.56 13.15Q18.04 12.28 18.04 11.15Q18.04 9.95 17.53 9.06Q17.23 8.54 16.81 8.15Q16.5 7.88 16.14 7.68Q15.98 7.6 15.82 7.53Q15.06 7.2 14.16 7.2Q13.25 7.2 12.48 7.54Q12.33 7.6 12.19 7.68Q11.85 7.87 11.57 8.11Q11.11 8.51 10.79 9.07Q10.77 9.1 10.76 9.14Q10.28 10.02 10.28 11.15Q10.28 12.34 10.78 13.24Q11.07 13.77 11.5 14.16Q11.79 14.43 12.15 14.63Q12.35 14.74 12.56 14.83ZM41.1 11.64Q41.14 11.23 41.14 10.87Q41.14 9.9 40.76 9.13Q40.72 9.05 40.69 8.98Q40.48 8.61 40.2 8.31Q39.86 7.94 39.39 7.67Q39.36 7.66 39.33 7.64Q38.51 7.2 37.46 7.2Q36.37 7.2 35.53 7.65Q35.5 7.67 35.48 7.68Q35.13 7.87 34.85 8.13Q34.43 8.52 34.14 9.06Q33.66 9.95 33.66 11.15Q33.66 12.34 34.15 13.24Q34.46 13.8 34.9 14.2Q35.18 14.45 35.51 14.63Q35.63 14.7 35.76 14.76Q36.52 15.12 37.46 15.12Q38.7 15.12 39.58 14.55Q39.67 14.49 39.76 14.43Q40.23 14.07 40.55 13.6Q40.84 13.16 40.99 12.63L39.62 12.63Q39.5 12.97 39.29 13.23Q39.1 13.47 38.84 13.66Q38.29 14.04 37.46 14.04Q36.84 14.04 36.34 13.8Q36.02 13.65 35.74 13.41Q35.6 13.28 35.49 13.14Q35.02 12.55 34.97 11.64L41.1 11.64ZM39.5 9.35Q39.82 9.87 39.82 10.6L34.98 10.6Q35.06 9.69 35.54 9.12Q35.64 9 35.76 8.89Q36.03 8.65 36.34 8.5Q36.82 8.28 37.4 8.28Q37.99 8.28 38.5 8.49Q38.56 8.52 38.63 8.55Q38.91 8.69 39.13 8.89Q39.34 9.09 39.5 9.35ZM14.81 13.91Q14.47 14 14.11 14Q13.64 14 13.23 13.86Q13.03 13.79 12.85 13.69Q12.75 13.63 12.65 13.56Q12.21 13.26 11.93 12.73Q11.59 12.08 11.59 11.15Q11.59 10.22 11.94 9.58Q12.23 9.05 12.67 8.74Q12.77 8.67 12.87 8.62Q13.02 8.54 13.18 8.48Q13.63 8.3 14.15 8.3Q14.56 8.3 14.94 8.42Q15.19 8.49 15.42 8.62Q15.53 8.67 15.62 8.74Q16.07 9.05 16.37 9.58Q16.74 10.22 16.74 11.15Q16.74 12.07 16.37 12.72Q16.08 13.21 15.66 13.51Q15.53 13.6 15.39 13.68Q15.11 13.83 14.81 13.91Z" fill="#000000" fill-opacity="1.000000" fill-rule="evenodd"/>
	</g>
	<line id="Line 13" x1="60.445312" y1="4.852386" x2="54.445312" y2="16.602386" stroke="#000000" stroke-opacity="0.500000" stroke-width="1.000000"/>
	<path id="Nothing" d="M83.93 8.52Q83.85 8.63 83.78 8.75L83.78 4.64L82.51 4.64L82.51 15L83.78 15L83.78 13.58Q83.82 13.65 83.87 13.72Q84.24 14.3 84.91 14.69Q84.92 14.69 84.94 14.7Q85.68 15.12 86.65 15.12Q87.35 15.12 87.95 14.89Q88.24 14.78 88.51 14.62Q88.78 14.45 89.01 14.25Q89.5 13.82 89.82 13.2Q89.82 13.19 89.83 13.18Q90.29 12.27 90.29 11.13Q90.29 9.95 89.82 9.06Q89.5 8.48 89.03 8.06Q88.79 7.85 88.51 7.69Q88.33 7.58 88.13 7.49Q87.45 7.2 86.65 7.2Q85.8 7.2 85.12 7.53Q85.02 7.58 84.93 7.63Q84.3 7.99 83.93 8.52ZM74.59 12.82L78.84 12.82L79.62 15L80.97 15L77.45 5.29L75.98 5.29L72.46 15L73.8 15L74.59 12.82ZM111.45 12.9L111.45 8.37L113.45 8.37L113.45 7.32L111.45 7.32L111.45 5.39L110.17 5.39L110.17 7.32L109.18 7.32L109.18 8.37L110.17 8.37L110.17 12.9Q110.17 14.01 110.71 14.51Q111.24 15 112.3 15L113.45 15L113.45 13.92L112.51 13.92Q111.92 13.92 111.68 13.69Q111.45 13.45 111.45 12.9ZM76.71 6.86L78.48 11.79L74.95 11.79L76.71 6.86ZM93.77 14.83Q94.48 15.12 95.32 15.12Q96.17 15.12 96.9 14.82Q97.11 14.74 97.31 14.63Q97.69 14.42 98.01 14.13Q98.43 13.75 98.73 13.24Q98.75 13.19 98.78 13.15Q99.25 12.28 99.25 11.15Q99.25 9.95 98.74 9.06Q98.44 8.54 98.02 8.15Q97.72 7.88 97.35 7.68Q97.19 7.6 97.03 7.53Q96.27 7.2 95.38 7.2Q94.46 7.2 93.69 7.54Q93.54 7.6 93.4 7.68Q93.06 7.87 92.78 8.11Q92.32 8.51 92.01 9.07Q91.99 9.1 91.97 9.14Q91.5 10.02 91.5 11.15Q91.5 12.34 91.99 13.24Q92.29 13.77 92.71 14.16Q93.01 14.43 93.37 14.63Q93.56 14.74 93.77 14.83ZM107.74 15L107.74 7.32L106.46 7.32L106.46 11.54Q106.46 12.74 105.87 13.37Q105.73 13.52 105.57 13.64Q105.04 14 104.26 14Q103.5 14 102.99 13.64Q102.83 13.54 102.7 13.39Q102.69 13.39 102.69 13.38Q102.13 12.77 102.13 11.65L102.13 7.32L100.86 7.32L100.86 11.82Q100.86 12.88 101.28 13.62Q101.55 14.12 101.97 14.45Q102.17 14.62 102.4 14.74Q102.42 14.75 102.44 14.76Q103.14 15.11 104.02 15.11Q104.67 15.11 105.23 14.88Q105.34 14.83 105.45 14.78Q105.9 14.55 106.22 14.19Q106.35 14.04 106.46 13.86L106.46 15L107.74 15ZM88.64 9.62Q88.99 10.26 88.99 11.13Q88.99 12.01 88.64 12.66Q88.39 13.14 88 13.45Q87.86 13.57 87.7 13.66Q87.49 13.78 87.27 13.86Q86.85 14 86.39 14Q85.98 14 85.61 13.89Q85.34 13.8 85.09 13.66Q84.95 13.58 84.82 13.48Q84.41 13.16 84.14 12.66Q83.78 12.01 83.78 11.15Q83.78 10.29 84.14 9.64Q84.42 9.14 84.84 8.82Q84.96 8.72 85.09 8.65Q85.35 8.5 85.62 8.41Q85.99 8.3 86.39 8.3Q86.86 8.3 87.28 8.45Q87.5 8.53 87.7 8.64Q87.86 8.73 88 8.84Q88.38 9.15 88.64 9.62ZM96.02 13.91Q95.68 14 95.32 14Q94.86 14 94.45 13.86Q94.25 13.79 94.06 13.69Q93.96 13.63 93.86 13.56Q93.42 13.26 93.14 12.73Q92.8 12.08 92.8 11.15Q92.8 10.22 93.15 9.58Q93.44 9.05 93.88 8.74Q93.98 8.67 94.08 8.62Q94.23 8.54 94.39 8.48Q94.84 8.3 95.36 8.3Q95.78 8.3 96.16 8.42Q96.4 8.49 96.63 8.62Q96.74 8.67 96.83 8.74Q97.29 9.05 97.58 9.58Q97.95 10.22 97.95 11.15Q97.95 12.07 97.58 12.72Q97.29 13.21 96.87 13.51Q96.75 13.6 96.61 13.68Q96.32 13.83 96.02 13.91Z" fill="#000000" fill-opacity="1.000000" fill-rule="evenodd"/>
</svg>
